<?xml version="1.0" encoding="UTF-8" standalone="no"?>
<!-- Created with Inkscape (http://www.inkscape.org/) -->

<svg
   width="400"
   height="520"
   viewBox="0 0 105.83333 137.58335"
   version="1.1"
   id="svg35207"
   inkscape:version="1.2.1 (9c6d41e, 2022-07-14)"
   sodipodi:docname="background_image_loading.svg"
   xmlns:inkscape="http://www.inkscape.org/namespaces/inkscape"
   xmlns:sodipodi="http://sodipodi.sourceforge.net/DTD/sodipodi-0.dtd"
   xmlns:xlink="http://www.w3.org/1999/xlink"
   xmlns="http://www.w3.org/2000/svg"
   xmlns:svg="http://www.w3.org/2000/svg">
  <sodipodi:namedview
     id="namedview35209"
     pagecolor="#ffffff"
     bordercolor="#000000"
     borderopacity="0.25"
     inkscape:showpageshadow="2"
     inkscape:pageopacity="0.0"
     inkscape:pagecheckerboard="0"
     inkscape:deskcolor="#d1d1d1"
     inkscape:document-units="mm"
     showgrid="false"
     inkscape:zoom="1.2539948"
     inkscape:cx="426.23781"
     inkscape:cy="416.26967"
     inkscape:window-width="1757"
     inkscape:window-height="1310"
     inkscape:window-x="0"
     inkscape:window-y="25"
     inkscape:window-maximized="0"
     inkscape:current-layer="layer1" />
  <defs
     id="defs35204">
    <linearGradient
       inkscape:collect="always"
       id="linearGradient35919">
      <stop
         style="stop-color:#efc378;stop-opacity:1;"
         offset="0"
         id="stop35915" />
      <stop
         style="stop-color:#dabd86;stop-opacity:1;"
         offset="1"
         id="stop35917" />
    </linearGradient>
    <linearGradient
       inkscape:collect="always"
       xlink:href="#linearGradient27698"
       id="linearGradient27700"
       x1="299.89734"
       y1="740.72644"
       x2="301.79373"
       y2="135.10674"
       gradientUnits="userSpaceOnUse"
       gradientTransform="matrix(0.18233868,0,0,0.20161737,-1.3453668,-17.794881)" />
    <linearGradient
       inkscape:collect="always"
       id="linearGradient27698">
      <stop
         style="stop-color:#70502f;stop-opacity:1;"
         offset="0"
         id="stop27694" />
      <stop
         style="stop-color:#e3c68d;stop-opacity:1;"
         offset="1"
         id="stop27696" />
    </linearGradient>
    <linearGradient
       inkscape:collect="always"
       xlink:href="#linearGradient35919"
       id="linearGradient35921"
       x1="78.000748"
       y1="156.67223"
       x2="78.370171"
       y2="18.683224"
       gradientUnits="userSpaceOnUse"
       gradientTransform="matrix(0.68915408,0,0,0.76201844,-0.15962742,-0.06567235)" />
  </defs>
  <g
     inkscape:label="Capa 1"
     inkscape:groupmode="layer"
     id="layer1">
    <path
       id="path27317-7"
       style="display:inline;fill:url(#linearGradient27700);fill-opacity:1;stroke:none;stroke-width:0.191736;stroke-opacity:1"
       d="M 86.387668,7.2749807 C 85.856305,7.2318657 85.315567,7.2329589 84.766561,7.2828385 63.532769,4.632501 42.424333,4.0437741 21.577311,7.4655414 16.86692,7.9970099 12.250571,8.8403068 8.8403122,13.684572 7.2845053,18.092473 4.8273414,19.261855 4.8701744,29.414665 L 4.0432399,65.081249 c 0.5097077,11.01967 0.5294326,21.858784 1.6560057,33.105806 0.9889868,6.735515 1.4388987,12.769185 2.8319467,18.833515 1.8162167,7.81306 5.7525067,12.81331 12.2191847,14.4558 l 64.512622,-0.36582 c 5.911759,-0.32639 10.077049,-6.4452 12.902244,-17.01028 C 101.80557,84.511729 103.23018,54.734642 101.14285,24.658937 100.24739,18.549249 94.358208,7.9217224 86.387668,7.2749307 Z M 25.61761,19.518117 78.551024,19.700835 c 9.313826,-0.672118 12.717459,4.537649 13.233435,12.620775 2.578491,20.0359 0.976298,43.272138 -2.150314,67.675304 -1.551982,7.507756 -0.903819,15.655856 -10.090584,18.473596 -18.339348,1.00045 -36.356262,0.57455 -54.256797,-0.36582 -6.1017,-0.47165 -7.578439,-7.91674 -8.932458,-15.54699 C 12.750141,80.693987 13.495925,55.089278 13.707546,29.943942 14.804893,22.71481 19.706942,20.457337 25.61761,19.518117 Z"
       sodipodi:nodetypes="scccccccccccssccccccccc" />
    <path
       fill="#d5a560"
       opacity="1"
       stroke="none"
       d="m 90.231437,100.63296 c -0.481139,3.76629 -1.091517,7.50012 -2.533929,11.00547 -1.024878,2.49062 -2.391535,4.67734 -4.465999,6.20972 -1.634468,1.20737 -3.550012,1.57425 -5.45406,1.57143 -12.074527,-0.018 -24.148941,-0.11669 -36.223455,-0.17249 -4.499419,-0.0208 -8.999662,-0.0496 -13.49832,0.0202 -4.303128,0.067 -7.324361,-2.13541 -9.302532,-6.21716 -1.588204,-3.27711 -2.296892,-6.84752 -2.67943,-10.51725 -0.220721,-2.1174 -0.547043,-4.221048 -0.79375,-6.335474 C 14.978363,93.612532 14.676475,91.026724 14.436073,88.434388 14.101766,84.829346 13.816531,81.218627 13.527181,77.608679 13.4324,76.426162 13.367564,75.23941 13.328172,74.053002 13.188372,69.842151 13.015091,65.631593 12.947853,61.419099 12.844632,54.952371 12.808996,48.484205 12.769342,42.016465 12.269156,37.276743 12.940265,32.418766 13.284154,28.662002 15.251258,11.537477 88.920173,5.2374712 93.73483,31.262125 94.907039,55.200428 91.753554,84.200741 90.231427,100.63293 Z"
       id="path218"
       sodipodi:nodetypes="cssssssssssssccccc"
       style="fill:url(#linearGradient35921);fill-opacity:1;stroke-width:0.194448" />
    <path
       id="path27315"
       style="display:inline;fill:#472510;fill-opacity:1;stroke:#472510;stroke-width:0.191736;stroke-opacity:1"
       d="M 16.023461,3.6053096 C 7.1774022,7.1497828 1.0254295,16.651907 0.97054736,39.637721 L 1.4666378,64.147227 c 0.694508,17.666681 1.0593845,35.272829 4.3009857,53.408903 2.5063881,7.37398 4.5761885,16.30745 15.2181555,18.47336 20.680054,0.086 39.736411,0.0878 59.885671,-0.23953 15.728771,-0.6925 19.7815,-15.5951 20.01107,-22.2579 2.36513,-26.600081 5.69717,-53.75634 3.54956,-77.761694 -0.61991,-6.929024 -1.53082,-13.778562 -3.3843,-19.178875 C 97.693039,9.8110439 92.818121,4.5401418 85.498404,3.6053096 c -24.927802,-3.66858295 -47.635101,-2.73351229 -69.474943,0 z m 70.269114,3.6499813 c 7.97054,0.6467905 13.859725,11.2743171 14.755205,17.3839881 2.08731,30.075705 0.66271,59.852788 -2.977616,89.441321 -2.8252,10.56509 -6.990498,16.68429 -12.902247,17.01069 L 20.654934,131.4571 C 14.188258,129.81462 10.25232,124.81399 8.4361059,117.00092 7.0430579,110.93659 6.593145,104.90332 5.604159,98.1678 4.4775849,86.920768 4.4578597,76.081653 3.9481532,65.061989 L 4.7750877,29.395007 C 4.7322564,19.242195 6.6077956,20.002175 8.1636015,15.594273 11.57386,10.750007 16.771833,7.013066 21.482224,7.4462774 44.790897,4.1607322 62.973253,4.3643044 84.671477,7.2631679 c 0.549007,-0.049892 1.089735,-0.050996 1.621098,-0.00786 z"
       inkscape:label="path27315"
       sodipodi:nodetypes="cccccccscccscccccccccccss" />
  </g>
</svg>
