<?xml version="1.0" encoding="UTF-8" standalone="no"?>
<!-- Created with Inkscape (http://www.inkscape.org/) -->

<svg
   width="400"
   height="520"
   viewBox="0 0 105.83333 137.58335"
   version="1.1"
   id="svg35207"
   inkscape:version="1.2.1 (9c6d41e, 2022-07-14)"
   sodipodi:docname="background_image_loading_movil.svg"
   xmlns:inkscape="http://www.inkscape.org/namespaces/inkscape"
   xmlns:sodipodi="http://sodipodi.sourceforge.net/DTD/sodipodi-0.dtd"
   xmlns:xlink="http://www.w3.org/1999/xlink"
   xmlns="http://www.w3.org/2000/svg"
   xmlns:svg="http://www.w3.org/2000/svg">
  <sodipodi:namedview
     id="namedview35209"
     pagecolor="#ffffff"
     bordercolor="#000000"
     borderopacity="0.25"
     inkscape:showpageshadow="2"
     inkscape:pageopacity="0.0"
     inkscape:pagecheckerboard="0"
     inkscape:deskcolor="#d1d1d1"
     inkscape:document-units="mm"
     showgrid="false"
     inkscape:zoom="1.2539948"
     inkscape:cx="426.63654"
     inkscape:cy="224.88132"
     inkscape:window-width="1512"
     inkscape:window-height="982"
     inkscape:window-x="0"
     inkscape:window-y="25"
     inkscape:window-maximized="0"
     inkscape:current-layer="layer1" />
  <defs
     id="defs35204">
    <linearGradient
       inkscape:collect="always"
       id="linearGradient35919">
      <stop
         style="stop-color:#efc378;stop-opacity:1;"
         offset="0"
         id="stop35915" />
      <stop
         style="stop-color:#dabd86;stop-opacity:1;"
         offset="1"
         id="stop35917" />
    </linearGradient>
    <linearGradient
       inkscape:collect="always"
       xlink:href="#linearGradient27698"
       id="linearGradient27700"
       x1="299.89734"
       y1="740.72644"
       x2="301.79373"
       y2="135.10674"
       gradientUnits="userSpaceOnUse"
       gradientTransform="matrix(0.14075594,0,0,0.15563809,11.058889,1.9156742)" />
    <linearGradient
       inkscape:collect="always"
       id="linearGradient27698">
      <stop
         style="stop-color:#70502f;stop-opacity:1;"
         offset="0"
         id="stop27694" />
      <stop
         style="stop-color:#e3c68d;stop-opacity:1;"
         offset="1"
         id="stop27696" />
    </linearGradient>
    <linearGradient
       inkscape:collect="always"
       xlink:href="#linearGradient35919"
       id="linearGradient35921"
       x1="78.000748"
       y1="156.67223"
       x2="78.370171"
       y2="18.683224"
       gradientUnits="userSpaceOnUse"
       gradientTransform="matrix(0.53199097,0,0,0.58823846,11.974218,15.601698)" />
  </defs>
  <g
     inkscape:label="Capa 1"
     inkscape:groupmode="layer"
     id="layer1">
    <path
       id="path27317-7"
       style="display:inline;fill:url(#linearGradient27700);fill-opacity:1;stroke:none;stroke-width:0.14801;stroke-opacity:1"
       d="m 78.784213,21.268299 c -0.410184,-0.03328 -0.827605,-0.03244 -1.25141,0.0061 -16.391379,-2.045922 -32.68599,-2.500388 -48.778802,0.141037 -3.636177,0.410266 -7.199757,1.061248 -9.832299,4.800767 -1.201001,3.40267 -3.097804,4.305372 -3.064739,12.142811 l -0.63835,27.532742 c 0.393467,8.50661 0.408694,16.87384 1.278349,25.555954 0.763447,5.199466 1.110755,9.85714 2.186116,14.53849 1.402024,6.03127 4.440634,9.8912 9.432573,11.15912 l 49.800376,-0.2824 c 4.56357,-0.25195 7.778956,-4.97536 9.959859,-13.13104 C 90.686029,80.891058 91.785753,57.904701 90.174444,34.687827 89.483195,29.971446 84.937054,21.76755 78.784213,21.26826 Z M 31.8729,30.719361 72.734733,30.86041 c 7.189788,-0.51884 9.817215,3.502829 10.215521,9.742579 1.99046,15.466669 0.753652,33.403832 -1.65993,52.241803 -1.198049,5.7956 -0.697701,12.085508 -7.789404,14.260648 -14.157019,0.7723 -28.065137,0.44353 -41.883415,-0.28239 -4.710194,-0.36409 -5.85016,-6.11131 -6.895392,-12.001465 C 21.939886,77.94394 22.515592,58.178441 22.678952,38.767553 23.526047,33.187041 27.310173,31.44439 31.8729,30.719361 Z"
       sodipodi:nodetypes="scccccccccccssccccccccc" />
    <path
       fill="#d5a560"
       opacity="1"
       stroke="none"
       d="m 81.751402,93.335787 c -0.371414,2.907379 -0.842594,5.789704 -1.956061,8.495643 -0.791152,1.92263 -1.84614,3.61067 -3.447518,4.79358 -1.261724,0.93203 -2.740424,1.21524 -4.210249,1.21307 -9.320905,-0.0139 -18.641722,-0.0901 -27.962618,-0.13315 -3.473316,-0.016 -6.947268,-0.0383 -10.419998,0.0156 -3.32179,0.0517 -5.654024,-1.64842 -7.181069,-4.79932 -1.226011,-2.52976 -1.77308,-5.285933 -2.06838,-8.118772 -0.170385,-1.634522 -0.422289,-3.258429 -0.612733,-4.890655 -0.23282,-1.995371 -0.465861,-3.991479 -0.651439,-5.992628 -0.258067,-2.782904 -0.478254,-5.570191 -0.701617,-8.356882 -0.07317,-0.912841 -0.123216,-1.828952 -0.153625,-2.744797 -0.107918,-3.250557 -0.241682,-6.500888 -0.293586,-9.752713 -0.07968,-4.991977 -0.10719,-9.985064 -0.137801,-14.977822 -0.386118,-3.658818 0.131943,-7.408922 0.397408,-10.308948 1.518501,-13.219239 58.387058,-18.082515 62.103722,2.007159 0.904885,18.479121 -1.529441,40.865849 -2.704443,53.550641 z"
       id="path218"
       sodipodi:nodetypes="cssssssssssssccccc"
       style="fill:url(#linearGradient35921);fill-opacity:1;stroke-width:0.150104" />
    <path
       id="path27315"
       style="display:inline;fill:#472510;fill-opacity:1;stroke:#472510;stroke-width:0.14801;stroke-opacity:1"
       d="M 24.466718,18.435504 C 17.638022,21.171653 12.88902,28.506797 12.846654,46.250645 l 0.382956,18.92006 c 0.536124,13.637755 0.81779,27.228783 3.320136,41.228885 1.934801,5.69233 3.532579,12.5885 11.747622,14.26047 15.963922,0.0664 30.674436,0.0678 46.228613,-0.1849 12.14179,-0.53458 15.270286,-12.03861 15.447502,-17.18194 C 91.799239,82.759344 94.3714,61.796129 92.713558,43.265249 92.235019,37.916405 91.531845,32.628918 90.101055,28.460158 87.511369,23.226007 83.748188,19.157146 78.097748,18.435504 c -19.242963,-2.831954 -36.771812,-2.110128 -53.63103,0 z m 54.244088,2.817595 c 6.152841,0.499289 10.698985,8.703184 11.390249,13.419532 1.611294,23.216874 0.511577,46.203228 -2.298565,69.044029 -2.180907,8.1557 -5.396299,12.87941 -9.959861,13.13137 l -49.800656,0.28239 C 23.050037,115.86251 20.011698,112.00228 18.609676,105.971 17.534316,101.28965 17.187006,96.632282 16.42356,91.432812 15.553904,82.75069 15.538678,74.383459 15.14521,65.876853 l 0.638351,-27.533048 c -0.03306,-7.837441 1.414755,-7.250776 2.615756,-10.653447 2.632541,-3.73952 6.645105,-6.624243 10.281281,-6.289827 17.993079,-2.536269 32.028909,-2.379123 48.778806,-0.141351 0.423804,-0.03851 0.841218,-0.03937 1.251402,-0.0061 z"
       inkscape:label="path27315"
       sodipodi:nodetypes="cccccccscccscccccccccccss" />
  </g>
</svg>
