<?xml version="1.0" encoding="UTF-8" standalone="no"?>
<!-- Created with Inkscape (http://www.inkscape.org/) -->

<svg
   width="140"
   height="110"
   viewBox="0 0 37.041666 29.104167"
   version="1.1"
   id="svg15023"
   inkscape:version="1.2.1 (9c6d41e, 2022-07-14)"
   sodipodi:docname="button-exit-main-menu.svg"
   xmlns:inkscape="http://www.inkscape.org/namespaces/inkscape"
   xmlns:sodipodi="http://sodipodi.sourceforge.net/DTD/sodipodi-0.dtd"
   xmlns:xlink="http://www.w3.org/1999/xlink"
   xmlns="http://www.w3.org/2000/svg"
   xmlns:svg="http://www.w3.org/2000/svg">
  <sodipodi:namedview
     id="namedview15025"
     pagecolor="#ffffff"
     bordercolor="#000000"
     borderopacity="0.25"
     inkscape:showpageshadow="2"
     inkscape:pageopacity="0.0"
     inkscape:pagecheckerboard="0"
     inkscape:deskcolor="#d1d1d1"
     inkscape:document-units="mm"
     showgrid="false"
     inkscape:zoom="6.2982658"
     inkscape:cx="74.147395"
     inkscape:cy="15.956773"
     inkscape:window-width="1734"
     inkscape:window-height="1139"
     inkscape:window-x="0"
     inkscape:window-y="25"
     inkscape:window-maximized="0"
     inkscape:current-layer="layer1" />
  <defs
     id="defs15020">
    <linearGradient
       inkscape:collect="always"
       xlink:href="#linearGradient19919"
       id="linearGradient19921"
       x1="205.96649"
       y1="635.96222"
       x2="255.62872"
       y2="635.96222"
       gradientUnits="userSpaceOnUse"
       gradientTransform="matrix(0.2483303,-0.07135842,0.07155868,0.24763533,-77.04072,-120.40527)" />
    <linearGradient
       inkscape:collect="always"
       id="linearGradient19919">
      <stop
         style="stop-color:#d26c22;stop-opacity:1;"
         offset="0"
         id="stop19915" />
      <stop
         style="stop-color:#ea962f;stop-opacity:1;"
         offset="1"
         id="stop19917" />
    </linearGradient>
  </defs>
  <g
     inkscape:label="Capa 1"
     inkscape:groupmode="layer"
     id="layer1">
    <path
       fill="#984c18"
       opacity="1"
       stroke="none"
       d="m 22.410728,1.3261579 c 0.426993,0.1374613 0.822982,0.2714385 1.194718,0.4060544 2.335808,0.8458596 3.714064,1.7169351 5.809755,3.6360241 6.671954,6.1097136 5.298039,17.6037006 -2.686811,21.8413606 -0.903866,0.479686 -1.89691,0.801725 -2.866752,1.146052 -1.324195,0.47013 -2.349356,-0.02097 -3.153818,-1.089166 -1.684257,-2.236439 -2.101416,-4.917373 -2.760508,-7.537805 -0.450726,-1.792017 0.701234,-2.880322 2.351267,-2.988081 2.314072,-0.15115 3.199751,-1.227367 2.906162,-3.287311 -0.237846,-1.668852 -1.993834,-2.859422 -3.872233,-2.474206 -0.767191,0.157354 -1.507567,0.594525 -2.178271,1.029833 -0.740437,0.480573 -0.880011,1.09011 -0.36199,1.966345 1.128196,1.908348 0.592814,3.233103 -1.582653,3.733738 C 12.411181,18.35302 9.5759483,18.854091 6.739688,19.312964 4.7209055,19.639604 2.0904526,17.980199 2.647551,15.195068 3.1260869,12.802614 3.4459435,10.378931 3.8768736,7.976353 3.9576345,7.526049 4.2056643,7.0968749 4.4213729,6.681081 4.9813045,5.6018197 5.8139432,5.1677451 6.9686961,5.7640251 7.6183768,6.099492 8.0005108,5.8944476 8.5373633,5.4348731 10.893652,2.6015694 14.873166,1.0472913 18.566669,0.8195393 c 0.541282,-0.033377 1.538519,0.0457534 2.061507,0.069505 M 29.92326,9.5354433 C 29.756501,9.2024914 29.589739,8.8695266 29.438325,8.4363738 29.412514,8.3663978 29.363055,8.3231818 29.246241,8.1120234 28.047501,6.2337868 26.698103,4.5303366 24.65069,3.4562606 21.274744,1.6852261 17.848032,1.5696247 14.138501,2.8322494 11.739687,3.3973127 10.016944,4.9390948 8.5874716,6.8140441 8.1197261,7.4275528 7.6992709,7.6206619 6.982473,7.3729042 c 0,0 -0.023414,-0.049368 -0.064865,-0.24206 C 5.8485724,6.201122 5.1718577,6.3494989 4.8496052,7.9145511 4.2907313,10.628738 3.955327,13.38981 3.5640235,16.136597 c -0.1590728,1.116636 0.5011192,1.472521 1.491425,1.315604 1.013455,-0.160558 2.0158144,-0.390803 3.2361056,-0.561507 1.6990796,-0.42104 3.4072679,-0.809239 5.0941549,-1.274263 1.198952,-0.330525 1.294608,-0.678152 0.624085,-1.714627 -0.938306,-1.450416 -0.862951,-2.15414 0.38176,-3.45445 0.323374,-0.337824 0.662876,-0.6602987 1.209127,-1.0797648 1.367114,-0.2243219 2.734231,-0.4486419 4.235043,-0.5671991 0.653149,0.3144841 1.32802,0.5912132 1.955643,0.9500922 2.544945,1.4551927 3.516238,6.5931667 -0.0099,7.7640837 -0.09508,0.03289 -0.190136,0.06582 -0.503313,0.120654 -0.382353,0.02837 -0.765377,0.04977 -1.146923,0.08648 -1.051289,0.101138 -1.621135,0.646786 -1.336701,1.716287 0.529321,1.990274 1.10954,3.968343 1.724701,5.934014 0.252464,0.806661 0.832772,1.177122 1.708228,0.811528 0.749953,-0.313228 1.502463,-0.620379 2.442981,-0.98727 1.04467,-0.819742 2.089341,-1.639481 3.297356,-2.534643 1.755358,-1.711773 2.435532,-3.924567 2.875403,-6.234198 0.07549,-0.39639 -0.06955,-0.834537 -0.135827,-1.44876 0.126997,-1.984184 -0.349446,-3.750251 -0.784165,-5.4431807 z"
       id="path504"
       sodipodi:nodetypes="cssssssssssssssssscsccccscsccssscsssccsccssscccsccc"
       style="stroke-width:0.258073" />
    <path
       fill="#ed9e31"
       opacity="1"
       stroke="none"
       d="m 30.659743,15.139979 c -0.609603,2.28628 -1.798626,3.996931 -3.582297,5.421057 -1.174327,0.700768 -2.271533,1.34616 -3.459414,1.94236 -0.299817,-0.02473 -0.514898,-0.02355 -0.717178,0.0278 -1.932792,0.490559 -1.919562,0.07234 -2.916386,-1.692675 -0.210081,-0.371976 -0.261675,-0.750417 -0.325653,-1.101625 -0.178128,-0.977448 -0.104466,-1.471017 0.899773,-1.645641 0.613567,-0.167694 1.371501,-0.262908 1.8491,-0.328921 -0.543864,0.319828 -1.784736,0.840946 -2.41413,1.218975 2.313665,1.070722 5.890768,-0.827944 6.255694,-3.213111 0.0083,-0.05388 -0.363527,-0.165587 -0.569643,-0.342669 0.585678,-1.902399 0.174116,-3.642125 -0.481661,-5.32236 -0.904791,-2.3182661 -3.79117,-3.8417706 -6.309059,-3.6623198 -1.588562,0.5241663 -3.069876,1.0664407 -4.640624,1.6455638 -1.035057,0.8343776 -2.015274,1.3626133 -2.914524,2.209106 -0.570455,0.53695 -0.90585,1.084077 0.07595,1.738451 0.621392,0.414149 1.022347,1.201288 1.413629,1.883081 0.09545,0.166307 -0.168194,0.764645 -0.382533,0.840969 -0.885617,0.315365 -1.806059,0.64029 -2.7321132,0.706806 -0.9885575,0.07104 -1.4979104,0.451614 -1.6301702,1.39683 -1.0072071,0.199735 -2.0095672,0.429981 -3.0230211,0.59054 C 4.0651804,17.609112 3.4049846,17.253227 3.5640565,16.136592 3.9553599,13.389805 4.2907642,10.628732 4.8496391,7.9145452 5.1718915,6.3494928 5.8486062,6.201116 6.8353374,7.2393143 6.4017527,7.6625016 5.8525319,7.9169857 5.734551,8.302667 5.2980167,9.7296953 4.9768916,11.194538 4.6766094,12.658268 c -0.06815,0.33224 0.1214937,0.717089 0.1924613,1.077711 0.1657736,0.01357 0.3315474,0.02713 0.4973198,0.04069 C 6.0044806,11.682843 7.3452323,9.8046753 7.0178859,7.4145696 7.6992993,7.6206528 8.1197545,7.4275436 8.5875,6.814035 10.016973,4.9390857 11.739716,3.3973034 14.138646,2.93085 13.293318,3.565675 12.447865,4.1018631 11.602416,4.6380638 19.970902,1.6159962 26.030031,3.2645046 29.4213,9.7755923 c 0.210409,0.9902777 0.587682,1.6154737 0.826329,2.4764397 0.0031,1.022636 0.429038,1.921283 0.412137,2.887939 z"
       id="path896"
       style="stroke:#ed9e31;stroke-width:0.258073;stroke-opacity:1"
       sodipodi:nodetypes="ccccsscccscsccssssscssscsscccsccccc" />
    <path
       fill="#d26c22"
       opacity="1"
       stroke="none"
       d="m 25.19792,10.103177 c 0.655778,1.680235 1.067344,3.419959 0.472077,5.38794 -0.05138,0.226879 -0.104773,0.295831 -0.229651,0.395263 -0.137432,0.157646 -0.203382,0.284801 -0.273586,0.389226 -0.0041,-0.02273 0.01513,0.01928 -0.08411,0.03583 -0.651442,0.42154 -1.203637,0.826513 -1.847158,1.268267 -0.48732,0.124696 -0.883324,0.21257 -1.281192,0.202051 -0.0096,-0.163595 -0.401089,-0.129587 -0.408794,-0.194766 3.378287,-1.14416 2.790802,-6.381293 0.245866,-7.8365027 -0.300756,-0.17197 -1.448064,-0.7361296 -2.781998,-0.6969206 -1.449767,0.042617 -3.095161,0.6880696 -3.463488,0.4451046 -2.722735,-1.2784201 -1.252188,-1.758163 0.139034,-2.6440942 1.189888,-0.7577184 2.926915,-0.7008436 3.291283,-0.7345348 2.71446,0.348566 5.328982,1.8721734 6.221714,3.9831337 z"
       id="path898"
       sodipodi:nodetypes="ccccccccsscscc"
       style="stroke-width:0.258073" />
    <path
       fill="#e48829"
       opacity="1"
       stroke="none"
       d="m 8.1850194,16.876174 c 0.025723,-0.95972 0.5350725,-1.340313 1.52363,-1.411346 0.9260556,-0.06652 1.8464956,-0.391439 2.7321126,-0.706805 0.21434,-0.07631 0.477978,-0.674662 0.382533,-0.840968 -0.391282,-0.681795 -0.792236,-1.468933 -1.413629,-1.883081 -0.981803,-0.654376 -0.646408,-1.201502 -0.07595,-1.738451 0.899252,-0.8464937 1.87894,-1.6080303 2.942576,-2.346428 0.448751,0.5422156 0.7795,1.0253279 1.110247,1.5084413 -0.3321,0.329513 -0.671603,0.6519887 -0.994976,0.9898127 -1.244712,1.300309 -1.320066,2.004033 -0.381761,3.454451 0.670523,1.036474 0.574873,1.384114 -0.624085,1.714625 -1.686889,0.465017 -3.3950735,0.853225 -5.2006937,1.259745 z"
       id="path900"
       style="stroke:#e48829;stroke-width:0.258073;stroke-opacity:1" />
    <path
       fill="#fae8bb"
       opacity="1"
       stroke="none"
       d="M 29.317274,9.7650203 C 25.951269,3.3684962 19.970873,1.6160052 11.602387,4.6380729 12.447836,4.1018724 13.045158,3.3657917 13.984926,2.7760174 18.729348,1.0606549 23.106517,1.7107369 26.287011,4.529369 c 1.413008,1.2522411 3.263984,3.1785364 3.632169,5.1491853 0.455617,0.6687407 0.97444,4.7619457 0.97368,5.2698097 -0.677845,-1.785739 -0.62283,-3.473565 -1.575584,-5.1833447 z"
       id="path902"
       sodipodi:nodetypes="cccsccc"
       style="stroke-width:0.258073" />
    <path
       fill="#de7b26"
       opacity="1"
       stroke="none"
       d="m 21.54884,17.832437 c -0.329833,0.08778 -0.655282,0.200583 -0.990282,0.258814 -1.00424,0.174624 -1.26719,0.722215 -0.899775,1.64564 0.140998,0.354366 0.218269,0.733883 0.325654,1.101626 3.372182,5.422061 9.81628,-3.657987 10.838958,-5.8889 0.142197,0.419483 0.434434,3.266237 -1.379938,5.843265 -0.73304,1.041164 -1.427418,2.134227 -2.531248,2.979923 -1.397002,1.229687 -3.154698,2.045781 -4.684728,2.410685 -0.875457,0.365594 -1.455754,-0.0049 -1.708227,-0.811526 -0.615219,-1.965656 -1.195428,-3.943729 -1.724703,-5.934016 -0.28444,-1.069499 0.285414,-1.615149 1.336703,-1.716286 0.574657,-0.04175 1.510569,-0.470751 1.92651,0.0201 z"
       id="path904"
       sodipodi:nodetypes="cssccsccssccc"
       style="fill:url(#linearGradient19921);fill-opacity:1;stroke-width:0.258073" />
    <path
       fill="#fbebc3"
       opacity="1"
       stroke="none"
       d="M 7.0001636,7.3937338 C 7.3452041,9.8046843 6.0044522,11.682852 5.3663622,13.776677 5.2005886,13.763107 5.0348159,13.749553 4.8690424,13.735983 4.7980739,13.375361 4.6084313,12.990512 4.6765801,12.658272 4.9768634,11.194542 5.2979884,9.7296993 5.7345227,8.302671 5.8525037,7.9169897 6.4017234,7.662506 6.8560163,7.3356615 c 0.1030214,-0.012117 0.1264565,0.037242 0.1441473,0.058072 z"
       id="path912"
       style="stroke-width:0.258073" />
    <path
       fill="#faddac"
       opacity="1"
       stroke="none"
       d="m 29.430648,8.4864742 c -0.05891,0.014191 -0.09626,-0.032632 -0.130157,-0.1351311 0.06257,-0.028167 0.111986,0.015058 0.130157,0.1351311 z"
       id="path920"
       style="stroke-width:0.258073" />
    <path
       fill="#fae8bb"
       opacity="1"
       stroke="none"
       d="m 25.914479,14.460452 c 0.204103,0.01916 0.342994,1.253869 0.334748,1.307753 -0.364925,2.385167 -3.942031,4.283834 -6.255695,3.213112 2.35117,-1.784788 4.753123,-1.284639 5.920949,-4.520865 z"
       id="path1194"
       sodipodi:nodetypes="cccc"
       style="stroke-width:0.258073" />
  </g>
</svg>
