<?xml version="1.0" encoding="UTF-8" standalone="no"?>
<!-- Created with Inkscape (http://www.inkscape.org/) -->

<svg
   width="140"
   height="110"
   viewBox="0 0 37.041666 29.104167"
   version="1.1"
   id="svg15023"
   inkscape:version="1.2.1 (9c6d41e, 2022-07-14)"
   sodipodi:docname="button-retry-again.svg"
   xmlns:inkscape="http://www.inkscape.org/namespaces/inkscape"
   xmlns:sodipodi="http://sodipodi.sourceforge.net/DTD/sodipodi-0.dtd"
   xmlns="http://www.w3.org/2000/svg"
   xmlns:svg="http://www.w3.org/2000/svg">
  <sodipodi:namedview
     id="namedview15025"
     pagecolor="#ffffff"
     bordercolor="#000000"
     borderopacity="0.25"
     inkscape:showpageshadow="2"
     inkscape:pageopacity="0.0"
     inkscape:pagecheckerboard="0"
     inkscape:deskcolor="#d1d1d1"
     inkscape:document-units="mm"
     showgrid="false"
     inkscape:zoom="2.1454545"
     inkscape:cx="70.148305"
     inkscape:cy="55"
     inkscape:window-width="1367"
     inkscape:window-height="456"
     inkscape:window-x="0"
     inkscape:window-y="25"
     inkscape:window-maximized="0"
     inkscape:current-layer="layer1" />
  <defs
     id="defs15020" />
  <g
     inkscape:label="Capa 1"
     inkscape:groupmode="layer"
     id="layer1">
    <g
       id="g13557"
       transform="matrix(0.26458333,0,0,0.26458333,-82.188954,-145.41335)"
       inkscape:export-filename="g13557.svg"
       inkscape:export-xdpi="96"
       inkscape:export-ydpi="96">
      <path
         fill="#245110"
         opacity="1"
         stroke="none"
         d="m 358.79239,616.02533 c -0.0748,-2.03851 -0.14954,-4.07703 -0.25473,-6.91882 -0.53812,-13.69648 -1.10526,-26.58771 -1.5253,-39.48377 -0.17709,-5.43664 1.05081,-10.51361 4.9191,-14.64654 4.95453,-3.12586 10.2326,-2.78736 15.97503,-1.42591 22.40452,9.33228 42.4755,21.93195 61.44614,36.37683 0.7898,0.60138 1.47794,1.33997 2.19208,2.0365 8.66754,8.45508 9.42279,17.11536 0.16885,24.7959 -13.25616,11.00226 -27.54419,20.76758 -41.47973,30.94037 -3.34604,2.44263 -7.00281,4.47131 -10.5788,6.58527 -14.60571,8.63433 -24.39487,2.40216 -28.59644,-13.60181 -1.49923,-5.71057 -1.29449,-11.86859 -1.89349,-18.67688 -0.14157,-2.56342 -0.25714,-4.27228 -0.37271,-5.98114 m 64.83613,-29.836 c -5.25405,-0.37773 -5.73675,-3.76889 -8.3548,-5.1467 -9.20923,-5.90644 -16.16007,-12.51553 -25.71626,-17.79379 -5.36163,-2.96143 -11.70987,-4.1366 -18.36251,-6.25128 -1.44819,0.29254 -2.89637,0.58508 -5.08997,0.89654 -4.83215,1.63831 -4.974,5.99732 -4.99738,9.80646 -0.0499,8.12921 0.45814,16.26489 0.84223,24.39295 0.66601,14.09515 1.15991,28.20629 2.26572,42.26831 0.36627,4.65795 -9.5e-4,10.28796 5.78363,13.53582 2.06811,4.84858 12.45913,7.21943 16.91955,4.09687 8.67929,-6.07599 17.72836,-11.64704 26.18814,-18.00727 9.59497,-7.21368 18.83228,-14.92187 27.97327,-22.71057 3.31253,-2.82251 3.39871,-9.75543 0.582,-13.01379 -2.35318,-2.72217 -4.84091,-5.4577 -7.7298,-7.55158 -3.08343,-2.2348 -9.72088,-3.47275 -12.96118,-5.45041 0,0 2.61076,1.67207 2.65736,0.92844 z"
         id="path506"
         sodipodi:nodetypes="ccsccscssssccccsccssscssssscc" />
      <path
         fill="#24510f"
         opacity="1"
         stroke="none"
         d="m 353.84445,650.01044 c -3.9057,7.41327 -10.5668,8.41668 -17.94381,7.66192 -7.15488,-0.73217 -11.18735,-5.57165 -12.74659,-11.75494 -2.14374,-8.50104 -3.35354,-17.27124 -4.47622,-25.98883 -2.14542,-16.65906 -4.02918,-33.35358 -5.81983,-50.05499 -0.34888,-3.25415 0.21918,-6.60663 0.42563,-10.31623 6.82684,-8.63311 22.57727,-10.21509 33.19281,-3.27624 0.73291,0.58258 1.04276,0.75378 1.3526,0.92499 0,0 0.1272,-0.0252 0.21915,0.29083 4.77673,4.25384 6.08142,9.35235 6.13864,15.33899 0.13733,14.37011 0.75253,28.73571 1.17493,43.10315 0.10577,4.71722 0.21151,9.43451 0.16931,14.93261 -0.35538,5.90522 -0.56275,11.02967 -0.77015,16.15406 0,0 -0.14254,0.2279 -0.31799,0.60669 -0.31647,1.04522 -0.45746,1.71161 -0.59848,2.37799 M 343.7345,560.40533 c -1.18821,-0.86724 -2.62756,-1.48337 -4.419,-2.83688 -4.19089,-0.11408 -8.13063,-0.47934 -13.09101,-0.62082 -1.71778,0.41437 -3.43552,0.82874 -5.90082,1.17963 -1.14679,1.97131 -3.02591,3.85443 -3.27658,5.93384 -0.42417,3.51867 0.18103,7.16149 0.12491,11.44104 0.29028,0.83813 0.58056,1.67633 0.91058,3.28082 0.0757,1.01861 0.15149,2.03717 0.0374,3.74414 0.29242,0.82629 0.58484,1.65253 0.91513,3.28705 0.0898,1.34283 0.17951,2.68567 0.075,4.7752 0.3215,1.13569 0.643,2.27143 0.95053,4.12848 0.0505,0.71906 0.10107,1.43811 -0.0236,3.03894 1.21447,9.9419 2.18124,19.92267 3.73669,29.81098 0.92719,5.8941 2.7789,11.64288 4.29572,18.16113 2.1712,6.03748 6.39013,7.98517 12.7258,7.39801 6.23034,-0.57739 10.11755,-3.77356 10.18359,-9.9906 0.0805,-7.58136 0.12228,-15.16583 0.002,-22.74615 -0.26904,-16.95789 -0.74688,-33.91297 -0.9176,-50.87146 -0.0452,-4.49604 -1.90845,-7.17151 -6.32867,-9.11335 z"
         id="path508"
         sodipodi:nodetypes="cssssccccscccccccccscccccccscssssc"
         inkscape:export-filename="path508.svg"
         inkscape:export-xdpi="96"
         inkscape:export-ydpi="96" />
      <path
         fill="#b89f59"
         opacity="1"
         stroke="none"
         d="m 347.74518,556.9303 c -0.22598,0.10461 -0.53583,-0.0666 -0.97064,-0.47968 0.21228,-0.0933 0.54956,0.0552 0.97064,0.47968 z"
         id="path570" />
      <path
         fill="#b89f59"
         opacity="1"
         stroke="none"
         d="m 355.09897,646.76819 c -0.13065,-4.86682 0.0767,-9.99127 0.47116,-15.48132 0.0804,4.83081 -0.0264,10.02728 -0.47116,15.48132 z"
         id="path596" />
      <path
         fill="#b89f59"
         opacity="1"
         stroke="none"
         d="m 358.56085,616.30078 c 0.34711,1.43341 0.46268,3.14227 0.52246,5.27759 -0.28851,-1.383 -0.52124,-3.19257 -0.52246,-5.27759 z"
         id="path598" />
      <path
         fill="#b89f59"
         opacity="1"
         stroke="none"
         d="m 354.146,649.80414 c -0.16053,-0.46008 -0.0195,-1.12647 0.35376,-2.04987 0.13745,0.44324 0.0426,1.14337 -0.35376,2.04987 z"
         id="path600" />
      <path
         fill="#50d832"
         opacity="1"
         stroke="none"
         d="m 371.94385,557.13232 c 5.90374,1.97992 12.25198,3.15509 17.61361,6.11652 9.55619,5.27826 18.51603,11.63623 28.20966,17.95599 2.34491,1.599 4.20541,2.78467 6.06592,3.97028 0,0 0.15161,-0.16534 0.15216,0.23718 2.31387,2.82672 4.62723,5.25092 6.90884,8.01435 -1.3497,1.7691 -2.41217,3.6593 -4.02649,4.55529 -11.85745,6.58149 -23.39804,14.00501 -35.87439,19.12696 -13.39071,5.49743 -18.93563,1.3872 -21.56543,-9.7453 -2.6903,-11.38861 -4.87173,-22.97748 -6.04635,-34.60297 -0.4437,-4.39111 -1.02115,-10.12103 3.57794,-13.44257 1.32507,1.43177 2.84232,3.54169 3.85706,3.32276 3.7026,-0.79895 1.30001,-3.50666 1.12747,-5.50849 m 41.52054,23.82904 c -14.34436,-10.42413 -33.16239,-18.71649 -38.59101,-16.72088 0.59592,0.99762 0.97244,2.13678 1.74445,2.8446 13.3573,12.24585 28.67096,21.22559 45.79761,27.09595 0.88195,0.30231 2.05194,-0.2356 3.08782,-0.38232 -0.25424,-1.17951 -0.10485,-2.80512 -0.83148,-3.46241 -3.43014,-3.1029 -7.1,-5.94073 -11.20739,-9.37494 z"
         id="path922" />
      <path
         fill="#33a524"
         opacity="1"
         stroke="none"
         d="m 366.92093,558.92749 c -4.5607,3.7121 -3.98325,9.44202 -3.53955,13.83313 1.17462,11.62549 3.35605,23.21436 6.04635,34.60297 2.6298,11.1325 8.17472,15.24273 21.56543,9.7453 12.47635,-5.12195 24.01694,-12.54547 35.87439,-19.12696 1.61432,-0.89599 2.67679,-2.78619 4.35444,-4.45813 5.37649,4.98889 5.53979,7.46094 0.56417,12.21418 -15.56762,14.87188 -33.634,26.40997 -51.59356,38.03912 -2.9177,1.88928 -6.79273,2.30005 -10.22525,3.39429 -5.75275,-2.52161 -5.38553,-8.15162 -5.7518,-12.80957 -1.10581,-14.06202 -1.59971,-28.17316 -2.26572,-42.26831 -0.38409,-8.12806 -0.89215,-16.26374 -0.84223,-24.39295 0.0234,-3.80914 0.16523,-8.16815 5.41309,-9.5542 0.41052,0.42859 0.4054,0.60486 0.40024,0.78113 z"
         id="path924"
         style="stroke:#33a524;stroke-opacity:1" />
      <path
         fill="#216111"
         opacity="1"
         stroke="none"
         d="m 369.98328,647.53449 c 3.41659,-1.45734 7.29162,-1.86811 10.20932,-3.75739 17.95956,-11.62915 36.02594,-23.16724 51.59356,-38.03912 4.97562,-4.75324 4.81232,-7.22529 -0.53247,-12.55341 -2.64126,-2.52136 -4.95462,-4.94556 -7.34234,-7.69074 3.31359,1.4936 6.93756,2.98267 10.02099,5.21747 2.88889,2.09388 5.37662,4.82941 7.7298,7.55158 2.81671,3.25836 2.73053,10.19128 -0.582,13.01379 -9.14099,7.7887 -18.3783,15.49689 -27.97327,22.71057 -8.45978,6.36023 -17.50885,11.93128 -26.18814,18.00727 -4.46042,3.12256 -14.85144,0.75171 -16.93545,-4.46002 z"
         id="path926"
         style="fill:#20630f;fill-opacity:1;stroke:#20630f;stroke-opacity:1" />
      <path
         fill="#71fb45"
         opacity="1"
         stroke="none"
         d="m 366.95932,559.31805 c -0.0332,-0.56683 -0.0281,-0.7431 -0.0659,-1.18109 1.40521,-0.55432 2.85339,-0.84686 4.67603,-1.07202 0.54699,2.06921 2.94958,4.77692 -0.75302,5.57587 -1.01474,0.21893 -2.53199,-1.89099 -3.85706,-3.32276 z"
         id="path928" />
      <path
         fill="#4fd832"
         opacity="1"
         stroke="none"
         d="m 319.30432,589.84265 c -0.0898,-1.34283 -0.1795,-2.68567 -0.0426,-4.6228 -0.1662,-1.52326 -0.55905,-2.45221 -0.95191,-3.3811 -0.0757,-1.01862 -0.15149,-2.03718 -0.0106,-3.63355 -0.15512,-1.51587 -0.52688,-2.45392 -0.89868,-3.39197 -0.17242,-3.59064 -0.77762,-7.23346 -0.35345,-10.75213 0.25067,-2.07941 2.12979,-3.96253 3.57428,-5.57038 -2.2713,3.01203 -2.13623,5.28211 1.80105,5.66077 4.00882,0.3855 8.10886,0.0422 12.14621,-0.27313 0.81598,-0.0637 2.2678,-1.61274 2.13306,-2.15644 -0.25616,-1.03369 -1.28131,-2.2583 -2.28195,-2.64984 -2.38391,-0.93262 -4.93951,-1.42615 -7.42575,-2.09704 4.19088,0.11407 8.38174,0.22821 12.81296,1.06811 -0.10157,7.50043 -0.45072,14.2746 -0.78376,21.04962 -0.67413,13.71167 -1.22259,27.43164 -2.14083,41.1269 -0.13035,1.94403 -2.04056,3.76873 -3.12699,5.64874 -1.88507,-1.32233 -4.72842,-2.2464 -5.47479,-4.04199 -2.20853,-5.31311 -3.57273,-10.97547 -5.30002,-16.49103 -0.88672,-2.83142 -1.84338,-5.64093 -2.76843,-8.46039 -0.0505,-0.71906 -0.10105,-1.43811 0.10476,-2.73608 -0.16665,-1.81806 -0.58959,-3.05713 -1.01257,-4.29627 z"
         id="path932"
         style="stroke:#33a524;stroke-opacity:1" />
      <path
         fill="#33a524"
         opacity="1"
         stroke="none"
         d="m 320.12451,597.31592 c 1.01267,2.37854 1.96933,5.18805 2.85605,8.01947 1.72729,5.51556 3.09149,11.17792 5.30002,16.49103 0.74637,1.79559 3.58972,2.71966 5.47479,4.04199 1.08643,-1.88001 2.99664,-3.70471 3.12699,-5.64874 0.91824,-13.69526 1.4667,-27.41523 2.14083,-41.1269 0.33304,-6.77502 0.68219,-13.54919 1.08536,-20.80652 1.24951,0.38459 2.43774,1.25184 3.75818,2.87732 -0.20819,20.53901 -0.51422,40.32056 -0.91895,60.10004 -0.0778,3.80042 -0.39556,7.61084 -0.85635,11.38568 -1.50958,12.36707 -1.55457,12.36157 -14.10281,12.37543 -1.4361,-5.81409 -3.28781,-11.56287 -4.215,-17.45697 -1.55545,-9.88831 -2.52222,-19.86908 -3.64911,-30.25183 z"
         id="path934"
         style="stroke:#33a524;stroke-opacity:1" />
      <path
         fill="#206011"
         opacity="1"
         stroke="none"
         d="m 327.29228,645.2597 c 12.90234,-0.37088 12.94874,-0.36531 14.50593,-12.89815 0.47532,-3.82544 0.80315,-7.68695 0.88336,-11.5383 0.41749,-20.04462 0.73317,-40.09134 1.10926,-60.61378 4.26189,0.90758 6.18387,3.61892 6.23053,8.17522 0.1761,17.18582 0.66901,34.36817 0.94654,51.55337 0.12403,7.68194 0.081,15.36808 -0.002,23.05106 -0.0681,6.30038 -4.07792,9.53939 -10.50476,10.12452 -6.53547,0.59503 -10.88745,-1.37877 -13.16875,-7.85394 z"
         id="path936"
         style="stroke:#206011;stroke-width:1.02243;stroke-opacity:1" />
      <path
         fill="#71fb45"
         opacity="1"
         stroke="none"
         d="m 326.60925,556.9613 c 2.87098,0.68463 5.42658,1.17816 7.81049,2.11078 1.00064,0.39154 2.02579,1.61615 2.28195,2.64984 0.13474,0.5437 -1.31708,2.09272 -2.13306,2.15644 -4.03735,0.3153 -8.13739,0.65863 -12.14621,0.27313 -3.93728,-0.37866 -4.07235,-2.64874 -1.4273,-5.62903 1.79385,-0.74609 3.51159,-1.16046 5.61413,-1.56116 z"
         id="path938"
         style="stroke:#71fb45;stroke-opacity:1" />
      <path
         fill="#33a524"
         opacity="1"
         stroke="none"
         d="m 319.20715,590.216 c 0.52015,0.86579 0.94309,2.10486 1.11673,3.5622 -0.57086,-0.91742 -0.89236,-2.05316 -1.11673,-3.5622 z"
         id="path940" />
      <path
         fill="#33a524"
         opacity="1"
         stroke="none"
         d="m 317.28625,575.15772 c 0.48609,0.59356 0.85785,1.53161 0.99311,2.6643 -0.5268,-0.64355 -0.81708,-1.48175 -0.99311,-2.6643 z"
         id="path942" />
      <path
         fill="#33a524"
         opacity="1"
         stroke="none"
         d="m 318.21484,582.18292 c 0.48783,0.58472 0.88068,1.51367 1.02796,2.63275 -0.53803,-0.63604 -0.83045,-1.46228 -1.02796,-2.63275 z"
         id="path944" />
      <path
         fill="#71fb45"
         opacity="1"
         stroke="none"
         d="m 413.72589,581.21228 c 3.84589,3.18329 7.51575,6.02112 10.94589,9.12402 0.72663,0.65729 0.57724,2.2829 0.83148,3.46241 -1.03588,0.14672 -2.20587,0.68463 -3.08782,0.38232 -17.12665,-5.87036 -32.44031,-14.8501 -45.79761,-27.09595 -0.77201,-0.70782 -1.14853,-1.84698 -1.74445,-2.8446 5.42862,-1.99561 24.24665,6.29675 38.85251,16.9718 z"
         id="path1200" />
    </g>
  </g>
</svg>
