<?xml version="1.0" encoding="UTF-8" standalone="no"?>
<!-- Created with Inkscape (http://www.inkscape.org/) -->

<svg
   width="180"
   height="180"
   viewBox="0 0 47.624999 47.625"
   version="1.1"
   id="svg57947"
   inkscape:version="1.2.1 (9c6d41e, 2022-07-14)"
   sodipodi:docname="start-menu.svg"
   xmlns:inkscape="http://www.inkscape.org/namespaces/inkscape"
   xmlns:sodipodi="http://sodipodi.sourceforge.net/DTD/sodipodi-0.dtd"
   xmlns:xlink="http://www.w3.org/1999/xlink"
   xmlns="http://www.w3.org/2000/svg"
   xmlns:svg="http://www.w3.org/2000/svg">
  <sodipodi:namedview
     id="namedview57949"
     pagecolor="#ffffff"
     bordercolor="#000000"
     borderopacity="0.25"
     inkscape:showpageshadow="2"
     inkscape:pageopacity="0.0"
     inkscape:pagecheckerboard="0"
     inkscape:deskcolor="#d1d1d1"
     inkscape:document-units="mm"
     showgrid="false"
     inkscape:zoom="1.3111111"
     inkscape:cx="89.618644"
     inkscape:cy="90"
     inkscape:window-width="1367"
     inkscape:window-height="456"
     inkscape:window-x="0"
     inkscape:window-y="25"
     inkscape:window-maximized="0"
     inkscape:current-layer="layer1" />
  <defs
     id="defs57944">
    <linearGradient
       inkscape:collect="always"
       xlink:href="#linearGradient26001"
       id="linearGradient26003"
       x1="302.43549"
       y1="177.86414"
       x2="299.47861"
       y2="12.300744"
       gradientUnits="userSpaceOnUse" />
    <linearGradient
       inkscape:collect="always"
       id="linearGradient26001">
      <stop
         style="stop-color:#bc511b;stop-opacity:1;"
         offset="0"
         id="stop25997" />
      <stop
         style="stop-color:#de8528;stop-opacity:1;"
         offset="1"
         id="stop25999" />
    </linearGradient>
    <linearGradient
       inkscape:collect="always"
       xlink:href="#linearGradient24566"
       id="linearGradient24568"
       x1="298.18335"
       y1="162.65086"
       x2="298.58817"
       y2="30.355474"
       gradientUnits="userSpaceOnUse" />
    <linearGradient
       inkscape:collect="always"
       id="linearGradient24566">
      <stop
         style="stop-color:#ee9d2e;stop-opacity:1;"
         offset="0"
         id="stop24562" />
      <stop
         style="stop-color:#fde53e;stop-opacity:1;"
         offset="1"
         id="stop24564" />
    </linearGradient>
  </defs>
  <g
     inkscape:label="Capa 1"
     inkscape:groupmode="layer"
     id="layer1">
    <g
       id="g26908"
       style="display:inline"
       transform="matrix(0.25784612,0,0,0.25784612,-52.981398,-1.1206583)">
      <path
         style="display:inline;fill:url(#linearGradient26003);fill-opacity:1;stroke:none;stroke-opacity:1"
         d="m 266.48903,59.874983 c 7.35463,-11.685591 17.60543,-46.854278 32.65908,-47.174229 2.83761,-0.567522 4.66611,-0.777072 6.80398,1.360795 8.65391,8.622227 13.6691,28.726138 25.40151,44.679438 1.33024,0.66512 3.25713,0.606067 4.76278,0.907196 9.75272,2.206989 45.36962,1.84804 49.21542,15.422344 0.27805,1.112197 -0.0743,2.561616 -0.2268,3.628787 -0.18586,1.301053 0.19288,2.823343 -0.2268,4.082385 -7.18353,15.077854 -20.99119,24.535221 -29.92983,32.306151 -13.16359,6.76169 11.83517,51.05318 -4.99724,59.77431 -0.41993,0.20997 -0.90798,0.13624 -1.3608,0.2268 -0.47076,0.0942 -0.95684,0.54575 -1.36079,0.6804 -1.3349,0.44497 -2.92174,0.21792 -4.30919,0.6804 -0.91072,0.30357 -3.19468,-0.50286 -4.08238,-0.6804 -2.33861,-0.46772 -4.76814,-0.60658 -7.03078,-1.36079 -5.70465,-1.90156 -11.28664,-5.18973 -16.78313,-7.93797 -1.88338,-0.94169 -4.61589,-2.41465 -6.35038,-3.62879 -0.50194,-0.35136 -1.36267,-1.24833 -2.04119,-1.5876 -2.84102,-1.42051 -5.88857,-2.94428 -8.61837,-4.30918 -8.14059,4.33865 -48.67441,28.50096 -53.29781,17.69034 -0.10164,-0.3213 -0.94594,-1.17275 -1.13399,-1.3608 -5.79543,-11.40481 -0.96449,-35.10225 0.90719,-46.49383 0.22209,-1.33251 1.95429,-8.11177 1.5876,-8.84517 -5.56948,-6.97598 -14.25307,-11.63049 -19.50473,-18.370732 -5.46965,-6.240608 -26.90873,-22.946652 -7.68587,-30.881958 13.11899,-5.385146 35.59758,-8.805536 47.60252,-8.807897 z"
         id="path25995"
         sodipodi:nodetypes="ccccccscccsssssssscccccccc" />
      <path
         fill="#974d1b"
         opacity="1"
         stroke="none"
         d="m 228.27814,107.13968 c -4.27602,-4.65244 -8.55989,-9.297692 -12.81853,-13.965982 -0.55782,-0.611473 -0.99408,-1.335487 -1.47333,-2.016731 -9.28032,-13.191948 -6.26015,-23.842071 9.36995,-28.078319 11.94487,-3.237435 24.49114,-4.394986 36.83844,-5.924454 3.74259,-0.463596 5.45804,-1.225334 7.04114,-5.026539 4.33377,-10.405636 8.79217,-20.921394 14.68283,-30.480514 10.10895,-16.404364 22.41229,-16.71121 32.88879,-0.61555 6.19715,9.521002 10.45575,20.35723 15.05378,30.835604 1.53033,3.487404 2.87616,4.904057 6.93472,5.301277 11.56064,1.131462 23.24566,2.276966 34.49539,5.008259 18.46954,4.484165 22.03207,15.17223 10.75757,30.369877 -3.74225,5.044418 -8.47119,9.356852 -13.12244,14.545672 -2.68225,2.31905 -5.03848,4.03882 -7.28772,5.88868 -11.9352,9.09442 -6.81062,6.75642 -6.67419,14.36332 0.30365,1.18201 0.62857,2.01758 0.9541,3.2533 2.77985,13.47838 5.75598,26.5387 3.42938,40.23743 -0.37979,0.45338 -0.46606,0.76648 -0.65826,1.37091 -2.71396,6.36429 -7.32852,9.34713 -13.82578,8.75012 -3.89978,-0.35832 -7.90329,-1.05174 -11.54416,-2.4296 -5.84274,-2.21112 -11.42349,-5.11447 -17.30682,-8.00659 -5.08334,-3.43886 -9.94009,-6.65279 -14.89548,-9.70666 -0.99655,-0.61414 -2.77789,-1.26407 -3.50042,-0.80367 -5.15558,3.28514 -10.13041,6.8539 -15.51362,10.41202 -1.85202,0.76312 -3.33135,1.50035 -4.85809,2.12096 -6.58328,2.6761 -13.00708,5.94864 -19.81442,7.82031 -9.52475,2.61882 -14.67345,-0.11167 -19.23097,-8.98073 -0.25714,-6.97885 -1.18323,-13.62387 -0.50748,-20.10179 0.87115,-8.35127 3.0247,-16.56877 4.8232,-25.07363 0.26545,-0.81864 0.33368,-1.40754 0.54751,-2.34489 1.41065,-2.74576 1.01665,-4.41931 -1.3773,-6.13251 -4.62616,-3.31063 -8.95545,-7.03608 -13.40779,-10.58958 m 18.41188,24.54162 c -0.57617,2.76967 -1.15236,5.53934 -2.29224,8.87377 -0.79559,7.37602 -2.11098,14.74199 -2.254,22.13063 -0.17505,9.04308 4.36959,13.90222 11.73107,13.2005 3.72186,-0.35477 7.72201,-1.15672 10.92611,-2.95239 10.03733,-5.62523 19.79703,-11.75319 29.56913,-17.83914 2.40847,-1.49997 4.18945,-2.52959 7.07852,-0.53374 6.52881,4.51034 13.27649,8.73739 20.15314,12.70155 7.23367,4.16998 14.47808,8.34752 23.4367,7.8355 7.05255,-0.40308 10.1098,-2.77263 9.85623,-9.93914 -0.2857,-8.07507 -1.26629,-16.12555 -1.93945,-24.95855 -0.99005,-3.06755 -1.98007,-6.13512 -2.96832,-10.0233 -0.96787,-4.04402 -1.9357,-8.08802 -2.33502,-12.47357 1.53274,-1.27343 3.15826,-2.45139 4.58319,-3.8358 9.14297,-8.88286 18.87021,-17.269613 27.16134,-26.891462 6.93348,-8.046356 4.99955,-13.448372 -4.41247,-17.984291 -1.78107,-0.858368 -3.65692,-1.777878 -5.57663,-2.048866 -12.29071,-1.735024 -24.58664,-3.477165 -36.92633,-4.789444 -3.10388,-0.330078 -4.91138,-1.140907 -5.90088,-4.073517 -1.38123,-4.093594 -2.79416,-8.190865 -4.48331,-12.163353 -4.36209,-10.258648 -8.74734,-20.539577 -17.07535,-28.416361 -3.71228,-3.511117 -8.65524,-3.697762 -12.58554,-0.383194 -1.63739,1.380909 -3.40222,2.915085 -4.34259,4.768486 -5.84155,11.512606 -11.48935,23.124022 -17.14209,34.731543 -1.19055,2.444683 -1.33938,5.454334 -5.34552,5.476425 -5.97082,0.03292 -12.06556,-0.04627 -17.87919,1.090397 -9.54808,1.866814 -19.07979,4.173225 -28.29297,7.264259 -5.57971,1.872002 -7.11627,6.654686 -4.21016,11.82544 3.05116,5.428856 6.61072,10.844856 11.01867,15.177185 7.44535,7.317603 15.73426,13.776903 23.70504,21.383053 -0.97325,4.0514 -1.94652,8.10279 -3.25708,12.84738 z"
         id="path6"
         sodipodi:nodetypes="cscsscssssssccccccsscsscsscsccscccssssssssccccsssssssscsssssscc" />
      <path
         style="display:inline;fill:url(#linearGradient24568);fill-opacity:1;stroke:none;stroke-opacity:1"
         d="m 240.89079,73.929774 c 11.12122,-1.468219 27.13622,0.798535 36.25743,-1.061194 1.72742,-0.863712 2.14709,-4.495757 2.65298,-6.013426 4.4408,-12.230608 8.56863,-22.81495 13.08805,-30.95146 0.79972,-1.599442 2.30765,-4.227391 3.92744,-5.037284 1.27514,-0.767191 2.84533,-0.497453 3.69936,0.369838 1.21317,1.602408 2.22323,2.847678 3.30663,4.610902 3.18555,5.184471 5.63783,10.670185 7.46058,16.151307 1.59574,4.787226 6.07413,19.308691 9.90446,21.223858 14.70381,3.902285 32.08095,1.1117 44.74697,4.775368 0.46971,0.234855 0.95811,0.78124 1.23806,1.061193 0.0883,0.08825 0,0.74584 0,0.884328 0,3.15494 -1.90788,4.030265 -3.89104,6.013426 -8.32624,8.525987 -19.72121,13.773347 -28.47534,22.28505 -1.2194,1.21939 -4.41057,2.80771 -5.30597,4.5985 5.00598,13.09513 8.63757,20.54408 12.91118,41.56339 0.19774,0.59322 1.58103,6.02419 1.06119,6.54402 -11.74238,0.61568 -36.22754,-21.28688 -41.91712,-27.41415 -4.3826,-6.3061 -4.11264,-4.04399 -9.7276,-0.17686 -3.99973,5.94195 -36.82446,36.66757 -36.78802,27.41415 -3.55034,-4.43793 -0.97073,-9.0323 -0.17686,-13.79551 1.7659,-10.59541 5.98372,-20.10325 10.78879,-29.7134 0.70024,-1.40048 4.90542,-6.28393 4.24477,-7.60522 -9.31947,-5.36083 -34.5311,-21.246452 -37.49548,-26.706683 -0.24078,-0.481561 -0.99979,-1.078974 -0.88433,-1.591789 1.30718,-5.80608 9.197,-7.251485 9.197,-7.251485"
         id="path24529"
         sodipodi:nodetypes="ccccccscccssccccccccssccsc" />
    </g>
  </g>
</svg>
